Genre:Comedy | Romance
Language:English  http://www.imdb.com/title/tt1278379/
Source:DVD

Format : Matroska
File size : 949 MiB
Duration : 1h 30mn
Overall bit rate : 1 460 Kbps


Video
Format settings, CABAC : Yes
Format settings, ReFrames : 4 frames
Codec ID : V_MPEG4/ISO/AVC
Duration : 1h 30mn
Bit rate : 1 000 Kbps
Width : 720 pixels
Height : 384 pixels
Display aspect ratio : 1.875
Frame rate mode : Variable
Frame rate : 23.976 fps
Color space : YUV
Chroma subsampling : 4:2:0
Bit depth : 8 bits
Scan type : Progressive
Bits/(Pixel*Frame) : 0.151
Stream size : 639 MiB (67%)
Writing library : x264

Audio
ID : 2
Format : AC-3
Format/Info : Audio Coding 3
Mode extension : CM (complete main)
Codec ID : A_AC3
Duration : 1h 30mn
Bit rate mode : Constant
Bit rate : 448 Kbps
Channel(s) : 6 channels
Channel positions : Front: L C R, Side: L R, LFE
Sampling rate : 48.0 KHz
Bit depth : 16 bits
Video delay : -1mn 5s
Stream size : 291 MiB (31%)
Language : English


Plot:
A limo driver's blind date sparks a tale of love, betrayal, friendship, and grace centered around two working-class New York City couples.
 
http://shareimage.org/images/a44hpjyrmxc7tb8kqzwo.png 
http://shareimage.org/images/s3ubcm7jewyutcc00ys.png 
http://shareimage.org/images/1a8h35prpcyzdfdf31q.png